<svg xmlns="http://www.w3.org/2000/svg" width="512" height="512" viewBox="-6 -6 72 72">
  
  <circle cx="11" cy="13" r="9" fill="#c8956c"/>
  <circle cx="11" cy="13" r="5.5" fill="#e8c4a0"/>
  <circle cx="49" cy="13" r="9" fill="#c8956c"/>
  <circle cx="49" cy="13" r="5.5" fill="#e8c4a0"/>
  <circle cx="30" cy="30" r="24" fill="#c8956c"/>
  <ellipse cx="30" cy="38" rx="12" ry="9" fill="#e8c4a0"/>

  
    <circle cx="22" cy="25" r="5" fill="#1a0a00"/>
    <circle cx="38" cy="25" r="5" fill="#1a0a00"/>
    <circle cx="20" cy="23" r="2" fill="white"/>
    <circle cx="36" cy="23" r="2" fill="white"/>
    <path d="M 15 18 Q 22 14 28 19" stroke="#1a0a00" stroke-width="2" fill="none" stroke-linecap="round"/>
    <path d="M 32 19 Q 38 14 45 18" stroke="#1a0a00" stroke-width="2" fill="none" stroke-linecap="round"/>
    
  <circle cx="17" cy="34" r="5" fill="#f4a0b0" opacity="0.15"/>
  <circle cx="43" cy="34" r="5" fill="#f4a0b0" opacity="0.15"/>

    <ellipse cx="30" cy="33" rx="3" ry="2" fill="#b07848"/>
    <path d="M 22 41 Q 24 38 27 41 Q 30 38 33 41 Q 36 38 38 41" stroke="#1a0a00" stroke-width="1.8" fill="none" stroke-linecap="round"/>
  
</svg>